<svg width="30" height="20" viewBox="0 0 30 20" fill="none" xmlns="http://www.w3.org/2000/svg">
<g clip-path="url(#clip0_973_221)">
<rect width="35.84" height="35.84" transform="translate(-2.91992 -8.35001)" fill="white"/>
<path d="M27.4924 17.0964L26.1612 15.6116L24.7788 17.0964H22.0652H16.2284V10.1844H13.5148L16.894 2.45319H20.1708L21.3484 5.11559V2.45319H25.4444L26.1612 4.44999L26.878 2.45319H30.0012V1.27559C30.0012 0.55879 29.438 -0.00440979 28.7212 -0.00440979H1.27805C0.561247 -0.00440979 -0.00195312 0.55879 -0.00195312 1.27559V17.9156C-0.00195312 18.6324 0.561247 19.1956 1.27805 19.1956H28.7212C29.438 19.1956 30.0012 18.6324 30.0012 17.9156V17.0964H27.4924Z" fill="#0071CE"/>
<path d="M27.8508 16.2772H30.0012L27.1852 13.2564L30.0012 10.2868H27.902L26.11 12.2324L24.3692 10.2868H22.2188L25.086 13.3076L22.2188 16.2772H24.318L26.11 14.3316L27.8508 16.2772Z" fill="#0071CE"/>
<path d="M18.7878 14.8948V13.9732H22.167V12.5908H18.7878V11.6692H22.2182V10.2868H17.1494V16.2772H22.2182V14.8948H18.7878Z" fill="#0071CE"/>
<path d="M28.414 9.41639H29.9499V3.37479L27.4924 3.42599L26.1612 7.16359L24.7788 3.42599H22.2188V9.41639H23.8572V5.21799L25.3932 9.41639H26.8268L28.414 5.21799V9.41639Z" fill="#0071CE"/>
<path d="M19.6073 3.42578H17.5081L14.8457 9.41618H16.6377L17.1497 8.23858H19.9145L20.4265 9.41618H22.2697L19.6073 3.42578ZM17.7129 6.85618L18.5321 4.91058L19.3513 6.85618H17.7129Z" fill="#0071CE"/>
<path d="M28.5166 13.1028L30.0014 14.7412V11.4644L28.5166 13.1028Z" fill="#0071CE"/>
</g>
<defs>
<clipPath id="clip0_973_221">
<rect width="30" height="19.15" rx="1.3" fill="white"/>
</clipPath>
</defs>
</svg>
