<svg width="30" height="20" viewBox="0 0 30 20" fill="none" xmlns="http://www.w3.org/2000/svg">
<g clip-path="url(#clip0_973_232)">
<rect width="30" height="19.2" rx="1" fill="white"/>
<path d="M18.1675 3.94344H11.9238V15.1635H18.1675V3.94344Z" fill="#FF5F00"/>
<path d="M12.3209 9.55348C12.3199 8.4729 12.5647 7.40626 13.0369 6.43431C13.5091 5.46236 14.1962 4.61058 15.0462 3.94344C13.9936 3.11602 12.7294 2.60147 11.3981 2.45859C10.0669 2.3157 8.72224 2.55024 7.51798 3.13542C6.31371 3.72059 5.29837 4.63278 4.58802 5.76772C3.87767 6.90267 3.50098 8.21457 3.50098 9.55348C3.50098 10.8924 3.87767 12.2043 4.58802 13.3392C5.29837 14.4742 6.31371 15.3864 7.51798 15.9715C8.72224 16.5567 10.0669 16.7913 11.3981 16.6484C12.7294 16.5055 13.9936 15.9909 15.0462 15.1635C14.1962 14.4964 13.5091 13.6446 13.0369 12.6726C12.5647 11.7007 12.3199 10.6341 12.3209 9.55348Z" fill="#EB001B"/>
<path d="M26.5908 9.55348C26.5909 10.8924 26.2142 12.2043 25.5039 13.3392C24.7936 14.4742 23.7783 15.3863 22.574 15.9715C21.3698 16.5567 20.0252 16.7913 18.694 16.6484C17.3627 16.5055 16.0985 15.9909 15.0459 15.1635C15.8952 14.4957 16.5818 13.6438 17.0539 12.672C17.526 11.7002 17.7713 10.6339 17.7713 9.55348C17.7713 8.47307 17.526 7.40677 17.0539 6.43497C16.5818 5.46317 15.8952 4.61125 15.0459 3.94343C16.0985 3.11602 17.3627 2.60147 18.694 2.45858C20.0252 2.3157 21.3698 2.55025 22.574 3.13543C23.7783 3.72061 24.7936 4.6328 25.5039 5.76775C26.2142 6.90269 26.5909 8.21458 26.5908 9.55348Z" fill="#F79E1B"/>
<path d="M25.9099 13.9751V13.7454H26.0025V13.6986H25.7666V13.7454H25.8593V13.9751H25.9099ZM26.3678 13.9751V13.6982H26.2955L26.2124 13.8887L26.1292 13.6982H26.0568V13.9751H26.1079V13.7662L26.1859 13.9463H26.2388L26.3168 13.7658V13.9751H26.3678Z" fill="#F79E1B"/>
</g>
<defs>
<clipPath id="clip0_973_232">
<rect width="30" height="19.2" rx="1" fill="white"/>
</clipPath>
</defs>
</svg>
