<svg width="30" height="20" viewBox="0 0 30 20" fill="none" xmlns="http://www.w3.org/2000/svg">
<rect width="30" height="19.2" rx="1" fill="white"/>
<g clip-path="url(#clip0_973_241)">
<path d="M11.4908 5.25429L7.96691 13.9457H5.66728L3.9136 7.02001C3.81434 6.59143 3.71507 6.43715 3.40074 6.24858C2.87132 5.95715 2.01103 5.68286 1.25 5.51143L1.29963 5.25429H5.00552C5.48529 5.25429 5.8989 5.58001 6.01471 6.14572L6.94118 11.1686L9.20772 5.25429H11.4908ZM20.5239 11.1171C20.5404 8.82001 17.4632 8.68286 17.4798 7.67143C17.4798 7.36286 17.7776 7.02001 18.4063 6.95143C18.7206 6.91715 19.5809 6.88286 20.557 7.34572L20.9375 5.47715C20.4081 5.28858 19.7298 5.10001 18.9026 5.10001C16.7518 5.10001 15.2298 6.28286 15.2132 7.98001C15.1967 9.23143 16.3051 9.93429 17.1158 10.3457C17.9596 10.7743 18.2574 11.0486 18.2408 11.4257C18.2408 12.0086 17.5625 12.2657 16.9338 12.2829C15.8419 12.3 15.1967 11.9743 14.7004 11.7343L14.3033 13.6371C14.8162 13.8771 15.7592 14.0829 16.7353 14.1C19.0184 14.0829 20.5239 12.9171 20.5239 11.1171ZM26.2316 13.9457H28.25L26.4798 5.25429H24.6268C24.2132 5.25429 23.8493 5.51143 23.7004 5.88858L20.4246 13.9457H22.7077L23.1544 12.6429H25.9504L26.2316 13.9457ZM23.7831 10.8771L24.9246 7.62001L25.5864 10.8771H23.7831ZM14.6176 5.25429L12.8143 13.9457H10.6305L12.4338 5.25429H14.6176Z" fill="#1434CB"/>
</g>
<defs>
<clipPath id="clip0_973_241">
<rect width="27" height="9" fill="white" transform="translate(1.25 5.10001)"/>
</clipPath>
</defs>
</svg>
